<svg width="91" height="95" viewBox="0 0 91 95" fill="none" xmlns="http://www.w3.org/2000/svg">
<path d="M10.7136 52.7169V50.3497H13.7253V38.6779C12.6081 39.2013 11.4714 39.6466 10.3151 40.0138V37.3185C11.4636 36.9513 12.7136 36.3966 14.0651 35.6544H16.7019V50.3966H19.7722V52.7169H10.7136ZM74.386 52.9865C73.4017 52.9865 72.4329 52.7872 71.4798 52.3888C70.5345 51.9825 69.7024 51.4005 68.9837 50.6427L70.5423 48.4161C71.0814 49.0724 71.6868 49.5763 72.3587 49.9279C73.0306 50.2716 73.6868 50.4435 74.3274 50.4435C75.2024 50.4435 75.9446 50.1583 76.554 49.588C77.1634 49.0177 77.4681 48.2052 77.4681 47.1505C77.4681 46.3146 77.261 45.5997 76.847 45.006C76.4407 44.4044 75.8939 44.1036 75.2064 44.1036C74.2532 44.1036 73.6009 44.3575 73.2493 44.8654L70.2845 44.4669V35.6544H79.7649V38.1974H72.9095L72.7689 42.5685C73.3235 41.8341 74.3353 41.4669 75.804 41.4669C77.0931 41.4669 78.2024 42.0177 79.1321 43.1193C80.0696 44.2208 80.5384 45.5802 80.5384 47.1974C80.5384 47.9474 80.4212 48.6427 80.1868 49.2833C79.9603 49.924 79.6478 50.4708 79.2493 50.924C78.8587 51.3693 78.3978 51.7521 77.8665 52.0724C77.3431 52.3849 76.7845 52.6154 76.1907 52.7638C75.6048 52.9122 75.0032 52.9865 74.386 52.9865Z" fill="#DE66E6"/>
<path d="M29.2655 35.3615C30.8358 35.3615 32.0936 35.838 33.0389 36.7911C33.992 37.7443 34.4686 39.1154 34.4686 40.9044C34.4686 41.2794 34.4334 41.6466 34.3631 42.006C34.3006 42.3654 34.2264 42.6818 34.1405 42.9552C34.0545 43.2286 33.9178 43.5255 33.7303 43.8458C33.5506 44.1661 33.3983 44.424 33.2733 44.6193C33.1561 44.8146 32.9647 45.0646 32.6991 45.3693C32.4413 45.674 32.2499 45.8966 32.1249 46.0372C31.9999 46.17 31.7889 46.3927 31.492 46.7052L28.0936 50.2794H34.3397V52.7169H24.4491V50.5724L29.3827 45.088C29.7811 44.6427 30.0545 44.338 30.203 44.174C30.3514 44.0021 30.5467 43.756 30.7889 43.4357C31.0389 43.1075 31.2069 42.8458 31.2928 42.6505C31.3788 42.4552 31.4569 42.2169 31.5272 41.9357C31.6053 41.6544 31.6444 41.3615 31.6444 41.0568C31.6444 40.8302 31.617 40.5177 31.5624 40.1193C31.492 39.6896 31.3749 39.3263 31.2108 39.0294C31.0545 38.7247 30.8592 38.4943 30.6249 38.338C30.3983 38.174 30.1522 38.0568 29.8866 37.9865C29.6288 37.9161 29.3358 37.881 29.0077 37.881C28.7889 37.881 28.5624 37.9005 28.328 37.9396C28.0936 37.9708 27.867 38.0177 27.6483 38.0802C27.4295 38.1349 27.2108 38.2013 26.992 38.2794C26.7733 38.3497 26.5702 38.4279 26.3827 38.5138C26.1952 38.5919 26.0116 38.674 25.8319 38.7599C25.66 38.838 25.5077 38.9161 25.3749 38.9943C25.242 39.0646 25.1249 39.131 25.0233 39.1935C24.9217 39.2482 24.8436 39.295 24.7889 39.3341L24.7069 39.381L23.7108 37.049C23.7733 37.0021 23.8592 36.9435 23.9686 36.8732C24.0858 36.795 24.3358 36.6583 24.7186 36.463C25.1014 36.2677 25.492 36.0958 25.8905 35.9474C26.2967 35.799 26.8084 35.6661 27.4256 35.549C28.0428 35.424 28.6561 35.3615 29.2655 35.3615ZM56.7013 45.92H60.674V39.4279C60.5021 39.7013 59.1779 41.8654 56.7013 45.92ZM60.6271 52.7169V48.2521H53.3966V46.0372L60.2404 35.6544H63.5919V45.92H66.2755V48.2521H63.6505V52.7169H60.6271Z" fill="#676767"/>
<path d="M44.4775 52.9865C43.8291 52.9865 43.2002 52.9357 42.5908 52.8341C41.9893 52.7404 41.4893 52.6232 41.0908 52.4825C40.6924 52.3419 40.3369 52.2013 40.0244 52.0607C39.7197 51.9122 39.4971 51.7872 39.3564 51.6857L39.1455 51.545L40.0479 49.3068C40.165 49.3849 40.3682 49.4982 40.6572 49.6466C40.9541 49.7872 41.4307 49.9552 42.0869 50.1505C42.751 50.3458 43.3799 50.4435 43.9736 50.4435C45.0283 50.4435 45.8369 50.2052 46.3994 49.7286C46.9619 49.2443 47.2432 48.5841 47.2432 47.7482C47.2432 46.8575 46.8604 46.1935 46.0947 45.756C45.3369 45.3107 44.2822 45.088 42.9307 45.088H42.5557L41.8057 45.1115L41.7822 42.5919H42.626C44.1416 42.5919 45.208 42.3927 45.8252 41.9943C46.4502 41.5958 46.7627 40.8849 46.7627 39.8615C46.7627 39.2365 46.4697 38.7521 45.8838 38.4083C45.2979 38.0568 44.6221 37.881 43.8564 37.881C43.4893 37.881 43.1377 37.9122 42.8018 37.9747C42.4658 38.0372 42.1611 38.1271 41.8877 38.2443C41.6143 38.3536 41.3916 38.4552 41.2197 38.549C41.0479 38.6349 40.8564 38.7443 40.6455 38.8771C40.4346 39.0099 40.3057 39.0919 40.2588 39.1232L38.9346 36.9786C39.8486 36.3693 40.6572 35.9435 41.3604 35.7013C42.0713 35.4591 43.0361 35.338 44.2549 35.338C44.9736 35.338 45.6533 35.4318 46.2939 35.6193C46.9424 35.8068 47.5244 36.0802 48.04 36.4396C48.5635 36.7911 48.9775 37.256 49.2822 37.8341C49.5947 38.4122 49.751 39.0646 49.751 39.7911C49.751 40.3927 49.6455 40.963 49.4346 41.5021C49.2314 42.0411 48.8799 42.5255 48.3799 42.9552C47.8877 43.3771 47.2822 43.6427 46.5635 43.7521C47.6807 43.9552 48.5557 44.4396 49.1885 45.2052C49.8291 45.963 50.1494 46.8536 50.1494 47.8771C50.1494 48.6583 49.9932 49.3771 49.6807 50.0333C49.376 50.6818 48.9619 51.2208 48.4385 51.6505C47.9229 52.0724 47.3213 52.4005 46.6338 52.6349C45.9541 52.8693 45.2354 52.9865 44.4775 52.9865ZM40.0361 49.3068H40.0479H40.0361Z" fill="#7D6AD4"/>
<g filter="url(#filter0_d_473_51)">
<path d="M9 72.0201V79.6875H15.1311" stroke="#7D6AD4" stroke-width="4" stroke-linecap="round"/>
</g>
<g filter="url(#filter1_d_473_51)">
<path d="M15.1311 5.94958H9.00001V13.617" stroke="#7D6AD4" stroke-width="4" stroke-linecap="round"/>
</g>
<g filter="url(#filter2_d_473_51)">
<path d="M80.68 13.6171V5.94965L74.5489 5.94965" stroke="#7D6AD4" stroke-width="4" stroke-linecap="round"/>
</g>
<g filter="url(#filter3_d_473_51)">
<path d="M75 79.6674H81.1311V72" stroke="#7D6AD4" stroke-width="4" stroke-linecap="round"/>
</g>
<defs>
<filter id="filter0_d_473_51" x="0" y="69.0201" width="24.1311" height="25.6674" filterUnits="userSpaceOnUse" color-interpolation-filters="sRGB">
<feFlood flood-opacity="0" result="BackgroundImageFix"/>
<feColorMatrix in="SourceAlpha" type="matrix" values="0 0 0 0 0 0 0 0 0 0 0 0 0 0 0 0 0 0 127 0" result="hardAlpha"/>
<feOffset dy="6"/>
<feGaussianBlur stdDeviation="3.5"/>
<feComposite in2="hardAlpha" operator="out"/>
<feColorMatrix type="matrix" values="0 0 0 0 0.141176 0 0 0 0 0.309804 0 0 0 0 0.913725 0 0 0 1 0"/>
<feBlend mode="normal" in2="BackgroundImageFix" result="effect1_dropShadow_473_51"/>
<feBlend mode="normal" in="SourceGraphic" in2="effect1_dropShadow_473_51" result="shape"/>
</filter>
<filter id="filter1_d_473_51" x="1" y="0.949585" width="24.1311" height="25.6674" filterUnits="userSpaceOnUse" color-interpolation-filters="sRGB">
<feFlood flood-opacity="0" result="BackgroundImageFix"/>
<feColorMatrix in="SourceAlpha" type="matrix" values="0 0 0 0 0 0 0 0 0 0 0 0 0 0 0 0 0 0 127 0" result="hardAlpha"/>
<feOffset dx="1" dy="4"/>
<feGaussianBlur stdDeviation="3.5"/>
<feComposite in2="hardAlpha" operator="out"/>
<feColorMatrix type="matrix" values="0 0 0 0 0.913725 0 0 0 0 0.529412 0 0 0 0 0.176471 0 0 0 1 0"/>
<feBlend mode="normal" in2="BackgroundImageFix" result="effect1_dropShadow_473_51"/>
<feBlend mode="normal" in="SourceGraphic" in2="effect1_dropShadow_473_51" result="shape"/>
</filter>
<filter id="filter2_d_473_51" x="66.5489" y="0.949646" width="24.1311" height="25.6674" filterUnits="userSpaceOnUse" color-interpolation-filters="sRGB">
<feFlood flood-opacity="0" result="BackgroundImageFix"/>
<feColorMatrix in="SourceAlpha" type="matrix" values="0 0 0 0 0 0 0 0 0 0 0 0 0 0 0 0 0 0 127 0" result="hardAlpha"/>
<feOffset dx="1" dy="4"/>
<feGaussianBlur stdDeviation="3.5"/>
<feComposite in2="hardAlpha" operator="out"/>
<feColorMatrix type="matrix" values="0 0 0 0 0.913725 0 0 0 0 0.529412 0 0 0 0 0.176471 0 0 0 1 0"/>
<feBlend mode="normal" in2="BackgroundImageFix" result="effect1_dropShadow_473_51"/>
<feBlend mode="normal" in="SourceGraphic" in2="effect1_dropShadow_473_51" result="shape"/>
</filter>
<filter id="filter3_d_473_51" x="66" y="69" width="24.1311" height="25.6674" filterUnits="userSpaceOnUse" color-interpolation-filters="sRGB">
<feFlood flood-opacity="0" result="BackgroundImageFix"/>
<feColorMatrix in="SourceAlpha" type="matrix" values="0 0 0 0 0 0 0 0 0 0 0 0 0 0 0 0 0 0 127 0" result="hardAlpha"/>
<feOffset dy="6"/>
<feGaussianBlur stdDeviation="3.5"/>
<feComposite in2="hardAlpha" operator="out"/>
<feColorMatrix type="matrix" values="0 0 0 0 0.141176 0 0 0 0 0.309804 0 0 0 0 0.913725 0 0 0 1 0"/>
<feBlend mode="normal" in2="BackgroundImageFix" result="effect1_dropShadow_473_51"/>
<feBlend mode="normal" in="SourceGraphic" in2="effect1_dropShadow_473_51" result="shape"/>
</filter>
</defs>
</svg>
