<svg width="76" height="66" viewBox="0 0 76 66" fill="none" xmlns="http://www.w3.org/2000/svg">
<path d="M4 57.0605V63.3994H9.77245" stroke="#C173FF" stroke-width="4" stroke-linecap="round"/>
<path d="M9.77234 2.43848H3.99989V8.7773" stroke="#C173FF" stroke-width="4" stroke-linecap="round"/>
<path d="M71.4869 8.77734V2.43852L65.7145 2.43852" stroke="#C173FF" stroke-width="4" stroke-linecap="round"/>
<path d="M66.1394 63.3828H71.9119V57.044" stroke="#C173FF" stroke-width="4" stroke-linecap="round"/>
<g filter="url(#filter0_d_724_169)">
<rect x="4" y="16.5347" width="67.7912" height="31.4155" rx="5" fill="#C173FF"/>
</g>
<path d="M8.67407 35V34.4082H9.427V31.4902C9.14771 31.6211 8.86353 31.7324 8.57446 31.8242V31.1504C8.86157 31.0586 9.17407 30.9199 9.51196 30.7344H10.1711V34.4199H10.9387V35H8.67407ZM13.33 30.6611C13.7226 30.6611 14.0371 30.7803 14.2734 31.0186C14.5117 31.2568 14.6308 31.5996 14.6308 32.0469C14.6308 32.1406 14.622 32.2324 14.6045 32.3223C14.5888 32.4121 14.5703 32.4912 14.5488 32.5596C14.5273 32.6279 14.4931 32.7021 14.4463 32.7822C14.4013 32.8623 14.3633 32.9268 14.332 32.9756C14.3027 33.0244 14.2549 33.0869 14.1884 33.1631C14.124 33.2393 14.0761 33.2949 14.0449 33.3301C14.0136 33.3633 13.9609 33.4189 13.8867 33.4971L13.0371 34.3906H14.5986V35H12.1259V34.4639L13.3593 33.0928C13.459 32.9814 13.5273 32.9053 13.5644 32.8643C13.6015 32.8213 13.6504 32.7598 13.7109 32.6797C13.7734 32.5977 13.8154 32.5322 13.8369 32.4834C13.8584 32.4346 13.8779 32.375 13.8955 32.3047C13.915 32.2344 13.9248 32.1611 13.9248 32.085C13.9248 32.0283 13.9179 31.9502 13.9043 31.8506C13.8867 31.7432 13.8574 31.6523 13.8164 31.5781C13.7773 31.502 13.7285 31.4443 13.6699 31.4053C13.6133 31.3643 13.5517 31.335 13.4853 31.3174C13.4209 31.2998 13.3476 31.291 13.2656 31.291C13.2109 31.291 13.1543 31.2959 13.0957 31.3057C13.0371 31.3135 12.9804 31.3252 12.9258 31.3408C12.8711 31.3545 12.8164 31.3711 12.7617 31.3906C12.707 31.4082 12.6562 31.4277 12.6093 31.4492C12.5625 31.4688 12.5166 31.4893 12.4717 31.5107C12.4287 31.5303 12.3906 31.5498 12.3574 31.5693C12.3242 31.5869 12.2949 31.6035 12.2695 31.6191C12.2441 31.6328 12.2246 31.6445 12.2109 31.6543L12.1904 31.666L11.9414 31.083C11.957 31.0713 11.9785 31.0566 12.0058 31.0391C12.0351 31.0195 12.0976 30.9854 12.1933 30.9365C12.289 30.8877 12.3867 30.8447 12.4863 30.8076C12.5879 30.7705 12.7158 30.7373 12.8701 30.708C13.0244 30.6768 13.1777 30.6611 13.33 30.6611ZM17.1511 35.0674C16.989 35.0674 16.8317 35.0547 16.6794 35.0293C16.529 35.0059 16.404 34.9766 16.3044 34.9414C16.2048 34.9062 16.1159 34.8711 16.0378 34.8359C15.9616 34.7988 15.9059 34.7676 15.8708 34.7422L15.8181 34.707L16.0436 34.1475C16.0729 34.167 16.1237 34.1953 16.196 34.2324C16.2702 34.2676 16.3893 34.3096 16.5534 34.3584C16.7194 34.4072 16.8767 34.4316 17.0251 34.4316C17.2888 34.4316 17.4909 34.3721 17.6315 34.2529C17.7722 34.1318 17.8425 33.9668 17.8425 33.7578C17.8425 33.5352 17.7468 33.3691 17.5554 33.2598C17.3659 33.1484 17.1022 33.0928 16.7643 33.0928H16.6706L16.4831 33.0986L16.4772 32.4688H16.6882C17.0671 32.4688 17.3337 32.4189 17.488 32.3193C17.6442 32.2197 17.7224 32.042 17.7224 31.7861C17.7224 31.6299 17.6491 31.5088 17.5026 31.4229C17.3561 31.335 17.1872 31.291 16.9958 31.291C16.904 31.291 16.8161 31.2988 16.7321 31.3145C16.6481 31.3301 16.572 31.3525 16.5036 31.3818C16.4352 31.4092 16.3796 31.4346 16.3366 31.458C16.2936 31.4795 16.2458 31.5068 16.1931 31.54C16.1403 31.5732 16.1081 31.5938 16.0964 31.6016L15.7653 31.0654C15.9938 30.9131 16.196 30.8066 16.3718 30.7461C16.5495 30.6855 16.7907 30.6553 17.0954 30.6553C17.2751 30.6553 17.445 30.6787 17.6052 30.7256C17.7673 30.7725 17.9128 30.8408 18.0417 30.9307C18.1725 31.0186 18.2761 31.1348 18.3522 31.2793C18.4304 31.4238 18.4694 31.5869 18.4694 31.7686C18.4694 31.9189 18.4431 32.0615 18.3903 32.1963C18.3395 32.3311 18.2517 32.4521 18.1267 32.5596C18.0036 32.665 17.8522 32.7314 17.6725 32.7588C17.9518 32.8096 18.1706 32.9307 18.3288 33.1221C18.489 33.3115 18.569 33.5342 18.569 33.79C18.569 33.9854 18.53 34.165 18.4518 34.3291C18.3757 34.4912 18.2722 34.626 18.1413 34.7334C18.0124 34.8389 17.862 34.9209 17.6901 34.9795C17.5202 35.0381 17.3405 35.0674 17.1511 35.0674ZM16.0407 34.1475H16.0436H16.0407ZM20.225 33.3008H21.2182V31.6777C21.1752 31.7461 20.8442 32.2871 20.225 33.3008ZM21.2065 35V33.8838H19.3988V33.3301L21.1098 30.7344H21.9477V33.3008H22.6186V33.8838H21.9623V35H21.2065ZM23.0001 33.6611V33.1045H24.8517V33.6611H23.0001ZM26.868 35.0674C26.6219 35.0674 26.3797 35.0176 26.1415 34.918C25.9051 34.8164 25.6971 34.6709 25.5174 34.4814L25.9071 33.9248C26.0418 34.0889 26.1932 34.2148 26.3612 34.3027C26.5292 34.3887 26.6932 34.4316 26.8534 34.4316C27.0721 34.4316 27.2577 34.3604 27.41 34.2178C27.5624 34.0752 27.6385 33.8721 27.6385 33.6084C27.6385 33.3994 27.5868 33.2207 27.4833 33.0723C27.3817 32.9219 27.245 32.8467 27.0731 32.8467C26.8348 32.8467 26.6717 32.9102 26.5838 33.0371L25.8426 32.9375V30.7344H28.2127V31.3701H26.4989L26.4637 32.4629C26.6024 32.2793 26.8553 32.1875 27.2225 32.1875C27.5448 32.1875 27.8221 32.3252 28.0545 32.6006C28.2889 32.876 28.4061 33.2158 28.4061 33.6201C28.4061 33.8076 28.3768 33.9814 28.3182 34.1416C28.2616 34.3018 28.1834 34.4385 28.0838 34.5518C27.9862 34.6631 27.8709 34.7588 27.7381 34.8389C27.6073 34.917 27.4676 34.9746 27.3192 35.0117C27.1727 35.0488 27.0223 35.0674 26.868 35.0674ZM30.7945 34.4316C31.0054 34.4316 31.1763 34.3545 31.3072 34.2002C31.4381 34.0439 31.5035 33.8486 31.5035 33.6143C31.5035 33.374 31.4449 33.1768 31.3277 33.0225C31.2125 32.8682 31.0494 32.791 30.8384 32.791C30.6041 32.791 30.4175 32.8691 30.2789 33.0254C30.1422 33.1797 30.0738 33.3799 30.0738 33.626C30.0738 33.7471 30.0953 33.8604 30.1383 33.9658C30.1812 34.0693 30.2379 34.1543 30.3082 34.2207C30.3785 34.2871 30.4556 34.3389 30.5396 34.376C30.6236 34.4131 30.7086 34.4316 30.7945 34.4316ZM30.815 35.0674C30.4732 35.0674 30.1832 34.9785 29.9449 34.8008C29.7066 34.623 29.5308 34.3779 29.4175 34.0654C29.3043 33.751 29.2476 33.3809 29.2476 32.9551C29.2476 32.6367 29.2847 32.3398 29.359 32.0645C29.4351 31.7871 29.5435 31.5439 29.6842 31.335C29.8267 31.124 30.0084 30.958 30.2291 30.8369C30.4498 30.7158 30.6968 30.6553 30.9703 30.6553C31.4195 30.6553 31.7808 30.7822 32.0543 31.0361L31.8082 31.5898C31.5543 31.3906 31.2769 31.291 30.9761 31.291C30.7086 31.291 30.4879 31.418 30.314 31.6719C30.1402 31.9258 30.0455 32.2441 30.0299 32.627C30.2388 32.3301 30.522 32.1816 30.8795 32.1816C31.3033 32.1816 31.6402 32.3105 31.8902 32.5684C32.1422 32.8242 32.2681 33.1699 32.2681 33.6055C32.2681 34.0312 32.1353 34.3818 31.8697 34.6572C31.6041 34.9307 31.2525 35.0674 30.815 35.0674ZM33.4759 35L35.0901 31.3438H32.9837V30.7344H35.9515V31.3027L34.2727 35H33.4759ZM38.1729 32.4863C38.3662 32.4297 38.5166 32.3428 38.624 32.2256C38.7315 32.1064 38.7852 31.9619 38.7852 31.792C38.7852 31.6436 38.7266 31.5264 38.6094 31.4404C38.4922 31.3525 38.3457 31.3086 38.1699 31.3086C37.9805 31.3086 37.8311 31.3525 37.7217 31.4404C37.6123 31.5264 37.5576 31.6553 37.5576 31.8271C37.5576 31.9854 37.6113 32.1221 37.7188 32.2373C37.8281 32.3525 37.9795 32.4355 38.1729 32.4863ZM38.1758 34.417C38.3945 34.417 38.5654 34.3652 38.6885 34.2617C38.8135 34.1582 38.876 34.001 38.876 33.79C38.876 33.624 38.8096 33.4678 38.6768 33.3213C38.5459 33.1748 38.3848 33.0762 38.1934 33.0254C37.9844 33.0723 37.8135 33.166 37.6807 33.3066C37.5479 33.4473 37.4815 33.6123 37.4815 33.8018C37.4815 33.999 37.543 34.1514 37.666 34.2588C37.791 34.3643 37.9609 34.417 38.1758 34.417ZM38.1875 35.0674C37.9082 35.0674 37.6592 35.0205 37.4404 34.9268C37.2217 34.833 37.0469 34.6924 36.916 34.5049C36.7871 34.3174 36.7227 34.0967 36.7227 33.8428C36.7227 33.6064 36.7861 33.3955 36.9131 33.21C37.042 33.0225 37.2197 32.873 37.4463 32.7617C37.0205 32.5195 36.8076 32.1924 36.8076 31.7803C36.8076 31.4326 36.9336 31.1582 37.1856 30.957C37.4395 30.7559 37.7666 30.6553 38.167 30.6553C38.5928 30.6553 38.9277 30.7588 39.1719 30.9658C39.418 31.1709 39.541 31.4531 39.541 31.8125C39.541 32.2461 39.3311 32.5654 38.9111 32.7705C39.1182 32.874 39.2891 33.0264 39.4238 33.2275C39.5606 33.4268 39.6289 33.6396 39.6289 33.8662C39.6289 34.1162 39.5606 34.334 39.4238 34.5195C39.2871 34.7051 39.1104 34.8428 38.8936 34.9326C38.6787 35.0225 38.4434 35.0674 38.1875 35.0674ZM40.2361 33.6611V33.1045H42.0876V33.6611H40.2361ZM43.1401 35V34.4082H43.893V31.4902C43.6137 31.6211 43.3295 31.7324 43.0405 31.8242V31.1504C43.3276 31.0586 43.6401 30.9199 43.978 30.7344H44.6372V34.4199H45.4047V35H43.1401ZM47.7961 30.6611C48.1886 30.6611 48.5031 30.7803 48.7394 31.0186C48.9777 31.2568 49.0968 31.5996 49.0968 32.0469C49.0968 32.1406 49.0881 32.2324 49.0705 32.3223C49.0549 32.4121 49.0363 32.4912 49.0148 32.5596C48.9933 32.6279 48.9592 32.7021 48.9123 32.7822C48.8674 32.8623 48.8293 32.9268 48.798 32.9756C48.7687 33.0244 48.7209 33.0869 48.6545 33.1631C48.59 33.2393 48.5422 33.2949 48.5109 33.3301C48.4797 33.3633 48.4269 33.4189 48.3527 33.4971L47.5031 34.3906H49.0646V35H46.592V34.4639L47.8254 33.0928C47.925 32.9814 47.9933 32.9053 48.0304 32.8643C48.0676 32.8213 48.1164 32.7598 48.1769 32.6797C48.2394 32.5977 48.2814 32.5322 48.3029 32.4834C48.3244 32.4346 48.3439 32.375 48.3615 32.3047C48.381 32.2344 48.3908 32.1611 48.3908 32.085C48.3908 32.0283 48.384 31.9502 48.3703 31.8506C48.3527 31.7432 48.3234 31.6523 48.2824 31.5781C48.2433 31.502 48.1945 31.4443 48.1359 31.4053C48.0793 31.3643 48.0177 31.335 47.9513 31.3174C47.8869 31.2998 47.8136 31.291 47.7316 31.291C47.6769 31.291 47.6203 31.2959 47.5617 31.3057C47.5031 31.3135 47.4465 31.3252 47.3918 31.3408C47.3371 31.3545 47.2824 31.3711 47.2277 31.3906C47.173 31.4082 47.1222 31.4277 47.0754 31.4492C47.0285 31.4688 46.9826 31.4893 46.9377 31.5107C46.8947 31.5303 46.8566 31.5498 46.8234 31.5693C46.7902 31.5869 46.7609 31.6035 46.7355 31.6191C46.7101 31.6328 46.6906 31.6445 46.6769 31.6543L46.6564 31.666L46.4074 31.083C46.423 31.0713 46.4445 31.0566 46.4718 31.0391C46.5011 31.0195 46.5636 30.9854 46.6593 30.9365C46.7551 30.8877 46.8527 30.8447 46.9523 30.8076C47.0539 30.7705 47.1818 30.7373 47.3361 30.708C47.4904 30.6768 47.6437 30.6611 47.7961 30.6611ZM51.6171 35.0674C51.455 35.0674 51.2977 35.0547 51.1454 35.0293C50.995 35.0059 50.87 34.9766 50.7704 34.9414C50.6708 34.9062 50.5819 34.8711 50.5038 34.8359C50.4276 34.7988 50.372 34.7676 50.3368 34.7422L50.2841 34.707L50.5097 34.1475C50.539 34.167 50.5897 34.1953 50.662 34.2324C50.7362 34.2676 50.8554 34.3096 51.0194 34.3584C51.1854 34.4072 51.3427 34.4316 51.4911 34.4316C51.7548 34.4316 51.9569 34.3721 52.0975 34.2529C52.2382 34.1318 52.3085 33.9668 52.3085 33.7578C52.3085 33.5352 52.2128 33.3691 52.0214 33.2598C51.8319 33.1484 51.5683 33.0928 51.2304 33.0928H51.1366L50.9491 33.0986L50.9433 32.4688H51.1542C51.5331 32.4688 51.7997 32.4189 51.954 32.3193C52.1102 32.2197 52.1884 32.042 52.1884 31.7861C52.1884 31.6299 52.1151 31.5088 51.9686 31.4229C51.8222 31.335 51.6532 31.291 51.4618 31.291C51.37 31.291 51.2821 31.2988 51.1981 31.3145C51.1142 31.3301 51.038 31.3525 50.9696 31.3818C50.9013 31.4092 50.8456 31.4346 50.8026 31.458C50.7597 31.4795 50.7118 31.5068 50.6591 31.54C50.6063 31.5732 50.5741 31.5938 50.5624 31.6016L50.2313 31.0654C50.4599 30.9131 50.662 30.8066 50.8378 30.7461C51.0155 30.6855 51.2567 30.6553 51.5614 30.6553C51.7411 30.6553 51.911 30.6787 52.0712 30.7256C52.2333 30.7725 52.3788 30.8408 52.5077 30.9307C52.6386 31.0186 52.7421 31.1348 52.8183 31.2793C52.8964 31.4238 52.9354 31.5869 52.9354 31.7686C52.9354 31.9189 52.9091 32.0615 52.8563 32.1963C52.8056 32.3311 52.7177 32.4521 52.5927 32.5596C52.4696 32.665 52.3183 32.7314 52.1386 32.7588C52.4179 32.8096 52.6366 32.9307 52.7948 33.1221C52.955 33.3115 53.035 33.5342 53.035 33.79C53.035 33.9854 52.996 34.165 52.9179 34.3291C52.8417 34.4912 52.7382 34.626 52.6073 34.7334C52.4784 34.8389 52.328 34.9209 52.1561 34.9795C51.9862 35.0381 51.8065 35.0674 51.6171 35.0674ZM50.5067 34.1475H50.5097H50.5067ZM54.691 33.3008H55.6842V31.6777C55.6412 31.7461 55.3102 32.2871 54.691 33.3008ZM55.6725 35V33.8838H53.8649V33.3301L55.5758 30.7344H56.4137V33.3008H57.0846V33.8838H56.4283V35H55.6725Z" fill="white"/>
<path d="M8.38794 26V25.6055H8.88989V23.6602C8.70369 23.7474 8.51424 23.8216 8.32153 23.8828V23.4336C8.51294 23.3724 8.72127 23.2799 8.94653 23.1562H9.38599V25.6133H9.89771V26H8.38794ZM11.4919 23.1074C11.7536 23.1074 11.9633 23.1868 12.1208 23.3457C12.2797 23.5046 12.3591 23.7331 12.3591 24.0312C12.3591 24.0938 12.3533 24.1549 12.3415 24.2148C12.3311 24.2747 12.3187 24.3275 12.3044 24.373C12.2901 24.4186 12.2673 24.4681 12.2361 24.5215C12.2061 24.5749 12.1807 24.6178 12.1599 24.6504C12.1404 24.6829 12.1085 24.7246 12.0642 24.7754C12.0212 24.8262 11.9893 24.8633 11.9685 24.8867C11.9477 24.9089 11.9125 24.946 11.863 24.998L11.2966 25.5938H12.3376V26H10.6892V25.6426L11.5115 24.7285C11.5779 24.6543 11.6234 24.6035 11.6482 24.5762C11.6729 24.5475 11.7055 24.5065 11.7458 24.4531C11.7875 24.3984 11.8155 24.3548 11.8298 24.3223C11.8441 24.2897 11.8572 24.25 11.8689 24.2031C11.8819 24.1562 11.8884 24.1074 11.8884 24.0566C11.8884 24.0189 11.8839 23.9668 11.8747 23.9004C11.863 23.8288 11.8435 23.7682 11.8161 23.7188C11.7901 23.668 11.7575 23.6296 11.7185 23.6035C11.6807 23.5762 11.6397 23.5566 11.5954 23.5449C11.5525 23.5332 11.5036 23.5273 11.449 23.5273C11.4125 23.5273 11.3747 23.5306 11.3357 23.5371C11.2966 23.5423 11.2589 23.5501 11.2224 23.5605C11.1859 23.5697 11.1495 23.5807 11.113 23.5938C11.0766 23.6055 11.0427 23.6185 11.0115 23.6328C10.9802 23.6458 10.9496 23.6595 10.9197 23.6738C10.891 23.6868 10.8656 23.6999 10.8435 23.7129C10.8214 23.7246 10.8018 23.7357 10.7849 23.7461C10.768 23.7552 10.7549 23.763 10.7458 23.7695L10.7322 23.7773L10.5661 23.3887C10.5766 23.3809 10.5909 23.3711 10.6091 23.3594C10.6286 23.3464 10.6703 23.3236 10.7341 23.291C10.7979 23.2585 10.863 23.2298 10.9294 23.2051C10.9971 23.1803 11.0824 23.1582 11.1853 23.1387C11.2881 23.1178 11.3904 23.1074 11.4919 23.1074ZM14.0393 26.0449C13.9312 26.0449 13.8264 26.0365 13.7248 26.0195C13.6246 26.0039 13.5412 25.9844 13.4748 25.9609C13.4084 25.9375 13.3492 25.9141 13.2971 25.8906C13.2463 25.8659 13.2092 25.8451 13.1858 25.8281L13.1506 25.8047L13.301 25.4316C13.3205 25.4447 13.3544 25.4635 13.4025 25.4883C13.452 25.5117 13.5315 25.5397 13.6408 25.5723C13.7515 25.6048 13.8563 25.6211 13.9553 25.6211C14.1311 25.6211 14.2658 25.5814 14.3596 25.502C14.4533 25.4212 14.5002 25.3112 14.5002 25.1719C14.5002 25.0234 14.4364 24.9128 14.3088 24.8398C14.1825 24.7656 14.0067 24.7285 13.7815 24.7285H13.719L13.594 24.7324L13.59 24.3125H13.7307C13.9833 24.3125 14.161 24.2793 14.2639 24.2129C14.368 24.1465 14.4201 24.028 14.4201 23.8574C14.4201 23.7533 14.3713 23.6725 14.2736 23.6152C14.176 23.5566 14.0634 23.5273 13.9358 23.5273C13.8746 23.5273 13.816 23.5326 13.76 23.543C13.704 23.5534 13.6532 23.5684 13.6076 23.5879C13.5621 23.6061 13.5249 23.623 13.4963 23.6387C13.4677 23.653 13.4358 23.6712 13.4006 23.6934C13.3654 23.7155 13.344 23.7292 13.3361 23.7344L13.1154 23.377C13.2678 23.2754 13.4025 23.2044 13.5197 23.1641C13.6382 23.1237 13.799 23.1035 14.0022 23.1035C14.1219 23.1035 14.2352 23.1191 14.342 23.1504C14.4501 23.1816 14.5471 23.2272 14.633 23.2871C14.7203 23.3457 14.7893 23.4232 14.84 23.5195C14.8921 23.6159 14.9182 23.7246 14.9182 23.8457C14.9182 23.946 14.9006 24.041 14.8654 24.1309C14.8316 24.2207 14.773 24.3014 14.6897 24.373C14.6076 24.4434 14.5067 24.4876 14.3869 24.5059C14.5731 24.5397 14.719 24.6204 14.8244 24.748C14.9312 24.8743 14.9846 25.0228 14.9846 25.1934C14.9846 25.3236 14.9585 25.4434 14.9065 25.5527C14.8557 25.6608 14.7867 25.7507 14.6994 25.8223C14.6135 25.8926 14.5132 25.9473 14.3986 25.9863C14.2854 26.0254 14.1656 26.0449 14.0393 26.0449ZM13.299 25.4316H13.301H13.299ZM16.0886 24.8672H16.7507V23.7852C16.722 23.8307 16.5013 24.1914 16.0886 24.8672ZM16.7429 26V25.2559H15.5378V24.8867L16.6784 23.1562H17.237V24.8672H17.6843V25.2559H17.2468V26H16.7429ZM19.048 26.0449C18.884 26.0449 18.7225 26.0117 18.5636 25.9453C18.4061 25.8776 18.2674 25.7806 18.1476 25.6543L18.4074 25.2832C18.4972 25.3926 18.5981 25.4766 18.7101 25.5352C18.8221 25.5924 18.9315 25.6211 19.0383 25.6211C19.1841 25.6211 19.3078 25.5736 19.4093 25.4785C19.5109 25.3835 19.5617 25.248 19.5617 25.0723C19.5617 24.9329 19.5272 24.8138 19.4582 24.7148C19.3905 24.6146 19.2993 24.5645 19.1847 24.5645C19.0259 24.5645 18.9172 24.6068 18.8586 24.6914L18.3644 24.625V23.1562H19.9445V23.5801H18.8019L18.7785 24.3086C18.8709 24.1862 19.0396 24.125 19.2843 24.125C19.4992 24.125 19.6841 24.2168 19.839 24.4004C19.9953 24.584 20.0734 24.8105 20.0734 25.0801C20.0734 25.2051 20.0539 25.321 20.0148 25.4277C19.9771 25.5345 19.925 25.6257 19.8586 25.7012C19.7935 25.7754 19.7166 25.8392 19.6281 25.8926C19.5409 25.9447 19.4478 25.9831 19.3488 26.0078C19.2511 26.0326 19.1509 26.0449 19.048 26.0449ZM21.6657 25.6211C21.8063 25.6211 21.9202 25.5697 22.0075 25.4668C22.0947 25.3626 22.1383 25.2324 22.1383 25.0762C22.1383 24.916 22.0993 24.7845 22.0211 24.6816C21.9443 24.5788 21.8356 24.5273 21.695 24.5273C21.5387 24.5273 21.4144 24.5794 21.3219 24.6836C21.2308 24.7865 21.1852 24.9199 21.1852 25.084C21.1852 25.1647 21.1995 25.2402 21.2282 25.3105C21.2568 25.3796 21.2946 25.4362 21.3415 25.4805C21.3883 25.5247 21.4398 25.5592 21.4958 25.584C21.5517 25.6087 21.6084 25.6211 21.6657 25.6211ZM21.6793 26.0449C21.4515 26.0449 21.2581 25.9857 21.0993 25.8672C20.9404 25.7487 20.8232 25.5853 20.7477 25.377C20.6722 25.1673 20.6344 24.9206 20.6344 24.6367C20.6344 24.4245 20.6592 24.2266 20.7086 24.043C20.7594 23.8581 20.8317 23.696 20.9254 23.5566C21.0205 23.416 21.1416 23.3053 21.2887 23.2246C21.4359 23.1439 21.6006 23.1035 21.7829 23.1035C22.0823 23.1035 22.3232 23.1882 22.5055 23.3574L22.3415 23.7266C22.1722 23.5938 21.9873 23.5273 21.7868 23.5273C21.6084 23.5273 21.4612 23.612 21.3454 23.7812C21.2295 23.9505 21.1663 24.1628 21.1559 24.418C21.2952 24.2201 21.484 24.1211 21.7223 24.1211C22.0049 24.1211 22.2295 24.207 22.3961 24.3789C22.5641 24.5495 22.6481 24.7799 22.6481 25.0703C22.6481 25.3542 22.5596 25.5879 22.3825 25.7715C22.2054 25.9538 21.971 26.0449 21.6793 26.0449ZM23.4533 26L24.5294 23.5625H23.1251V23.1562H25.1036V23.5352L23.9845 26H23.4533ZM26.5846 24.3242C26.7135 24.2865 26.8137 24.2285 26.8854 24.1504C26.957 24.071 26.9928 23.9746 26.9928 23.8613C26.9928 23.7624 26.9537 23.6842 26.8756 23.627C26.7975 23.5684 26.6998 23.5391 26.5826 23.5391C26.4563 23.5391 26.3567 23.5684 26.2838 23.627C26.2109 23.6842 26.1744 23.7702 26.1744 23.8848C26.1744 23.9902 26.2102 24.0814 26.2818 24.1582C26.3548 24.235 26.4557 24.2904 26.5846 24.3242ZM26.5865 25.6113C26.7324 25.6113 26.8463 25.5768 26.9283 25.5078C27.0117 25.4388 27.0533 25.334 27.0533 25.1934C27.0533 25.0827 27.0091 24.9785 26.9205 24.8809C26.8333 24.7832 26.7259 24.7174 26.5983 24.6836C26.4589 24.7148 26.345 24.7773 26.2565 24.8711C26.1679 24.9648 26.1236 25.0749 26.1236 25.2012C26.1236 25.3327 26.1647 25.4342 26.2467 25.5059C26.33 25.5762 26.4433 25.6113 26.5865 25.6113ZM26.5943 26.0449C26.4081 26.0449 26.2421 26.0137 26.0963 25.9512C25.9505 25.8887 25.8339 25.7949 25.7467 25.6699C25.6608 25.5449 25.6178 25.3978 25.6178 25.2285C25.6178 25.071 25.6601 24.9303 25.7447 24.8066C25.8307 24.6816 25.9492 24.582 26.1002 24.5078C25.8164 24.3464 25.6744 24.1283 25.6744 23.8535C25.6744 23.6217 25.7584 23.4388 25.9264 23.3047C26.0956 23.1706 26.3137 23.1035 26.5807 23.1035C26.8645 23.1035 27.0878 23.1725 27.2506 23.3105C27.4147 23.4473 27.4967 23.6354 27.4967 23.875C27.4967 24.1641 27.3567 24.377 27.0768 24.5137C27.2148 24.5827 27.3287 24.6842 27.4186 24.8184C27.5097 24.9512 27.5553 25.0931 27.5553 25.2441C27.5553 25.4108 27.5097 25.556 27.4186 25.6797C27.3274 25.8034 27.2096 25.8952 27.065 25.9551C26.9218 26.015 26.7649 26.0449 26.5943 26.0449ZM29.0284 24.5781C29.1808 24.5781 29.3038 24.5299 29.3975 24.4336C29.4926 24.3372 29.5401 24.1979 29.5401 24.0156C29.5401 23.8789 29.4965 23.7637 29.4093 23.6699C29.3233 23.5749 29.2087 23.5273 29.0655 23.5273C28.9145 23.5273 28.7934 23.5762 28.7022 23.6738C28.6124 23.7702 28.5675 23.8971 28.5675 24.0547C28.5675 24.2096 28.6065 24.3359 28.6847 24.4336C28.7641 24.5299 28.8787 24.5781 29.0284 24.5781ZM28.9444 26.0508C28.7257 26.0508 28.4802 25.9837 28.2081 25.8496L28.3878 25.4473C28.5584 25.5605 28.7302 25.6172 28.9034 25.6172C28.9906 25.6172 29.072 25.6016 29.1475 25.5703C29.2231 25.5378 29.2914 25.4889 29.3526 25.4238C29.4138 25.3587 29.462 25.2708 29.4972 25.1602C29.5323 25.0482 29.5499 24.9186 29.5499 24.7715V24.7207C29.4314 24.9004 29.2413 24.9902 28.9796 24.9902C28.7035 24.9902 28.4822 24.9049 28.3155 24.7344C28.1502 24.5638 28.0675 24.3405 28.0675 24.0645C28.0675 23.7858 28.1567 23.556 28.335 23.375C28.5134 23.194 28.7498 23.1035 29.044 23.1035C29.363 23.1035 29.6091 23.222 29.7823 23.459C29.9568 23.6947 30.044 24.0397 30.044 24.4941C30.044 24.7988 30.0017 25.0677 29.9171 25.3008C29.8324 25.5339 29.7061 25.7174 29.5382 25.8516C29.3715 25.9844 29.1736 26.0508 28.9444 26.0508ZM30.9312 26V25.6055H31.4332V23.6602C31.247 23.7474 31.0575 23.8216 30.8648 23.8828V23.4336C31.0562 23.3724 31.2646 23.2799 31.4898 23.1562H31.9293V25.6133H32.441V26H30.9312ZM34.0352 23.1074C34.2969 23.1074 34.5066 23.1868 34.6641 23.3457C34.823 23.5046 34.9024 23.7331 34.9024 24.0312C34.9024 24.0938 34.8965 24.1549 34.8848 24.2148C34.8744 24.2747 34.862 24.3275 34.8477 24.373C34.8334 24.4186 34.8106 24.4681 34.7793 24.5215C34.7494 24.5749 34.724 24.6178 34.7032 24.6504C34.6836 24.6829 34.6517 24.7246 34.6075 24.7754C34.5645 24.8262 34.5326 24.8633 34.5118 24.8867C34.4909 24.9089 34.4558 24.946 34.4063 24.998L33.8399 25.5938H34.8809V26H33.2325V25.6426L34.0547 24.7285C34.1211 24.6543 34.1667 24.6035 34.1915 24.5762C34.2162 24.5475 34.2487 24.5065 34.2891 24.4531C34.3308 24.3984 34.3588 24.3548 34.3731 24.3223C34.3874 24.2897 34.4004 24.25 34.4122 24.2031C34.4252 24.1562 34.4317 24.1074 34.4317 24.0566C34.4317 24.0189 34.4271 23.9668 34.418 23.9004C34.4063 23.8288 34.3868 23.7682 34.3594 23.7188C34.3334 23.668 34.3008 23.6296 34.2618 23.6035C34.224 23.5762 34.183 23.5566 34.1387 23.5449C34.0958 23.5332 34.0469 23.5273 33.9922 23.5273C33.9558 23.5273 33.918 23.5306 33.879 23.5371C33.8399 23.5423 33.8021 23.5501 33.7657 23.5605C33.7292 23.5697 33.6928 23.5807 33.6563 23.5938C33.6198 23.6055 33.586 23.6185 33.5547 23.6328C33.5235 23.6458 33.4929 23.6595 33.4629 23.6738C33.4343 23.6868 33.4089 23.6999 33.3868 23.7129C33.3646 23.7246 33.3451 23.7357 33.3282 23.7461C33.3112 23.7552 33.2982 23.763 33.2891 23.7695L33.2754 23.7773L33.1094 23.3887C33.1198 23.3809 33.1342 23.3711 33.1524 23.3594C33.1719 23.3464 33.2136 23.3236 33.2774 23.291C33.3412 23.2585 33.4063 23.2298 33.4727 23.2051C33.5404 23.1803 33.6257 23.1582 33.7286 23.1387C33.8314 23.1178 33.9336 23.1074 34.0352 23.1074ZM36.5825 26.0449C36.4745 26.0449 36.3697 26.0365 36.2681 26.0195C36.1678 26.0039 36.0845 25.9844 36.0181 25.9609C35.9517 25.9375 35.8924 25.9141 35.8404 25.8906C35.7896 25.8659 35.7525 25.8451 35.729 25.8281L35.6939 25.8047L35.8443 25.4316C35.8638 25.4447 35.8977 25.4635 35.9458 25.4883C35.9953 25.5117 36.0747 25.5397 36.1841 25.5723C36.2948 25.6048 36.3996 25.6211 36.4986 25.6211C36.6743 25.6211 36.8091 25.5814 36.9029 25.502C36.9966 25.4212 37.0435 25.3112 37.0435 25.1719C37.0435 25.0234 36.9797 24.9128 36.8521 24.8398C36.7258 24.7656 36.55 24.7285 36.3247 24.7285H36.2622L36.1372 24.7324L36.1333 24.3125H36.274C36.5266 24.3125 36.7043 24.2793 36.8072 24.2129C36.9113 24.1465 36.9634 24.028 36.9634 23.8574C36.9634 23.7533 36.9146 23.6725 36.8169 23.6152C36.7193 23.5566 36.6066 23.5273 36.479 23.5273C36.4178 23.5273 36.3592 23.5326 36.3033 23.543C36.2473 23.5534 36.1965 23.5684 36.1509 23.5879C36.1053 23.6061 36.0682 23.623 36.0396 23.6387C36.0109 23.653 35.979 23.6712 35.9439 23.6934C35.9087 23.7155 35.8872 23.7292 35.8794 23.7344L35.6587 23.377C35.8111 23.2754 35.9458 23.2044 36.063 23.1641C36.1815 23.1237 36.3423 23.1035 36.5454 23.1035C36.6652 23.1035 36.7785 23.1191 36.8853 23.1504C36.9934 23.1816 37.0904 23.2272 37.1763 23.2871C37.2635 23.3457 37.3325 23.4232 37.3833 23.5195C37.4354 23.6159 37.4615 23.7246 37.4615 23.8457C37.4615 23.946 37.4439 24.041 37.4087 24.1309C37.3749 24.2207 37.3163 24.3014 37.2329 24.373C37.1509 24.4434 37.05 24.4876 36.9302 24.5059C37.1164 24.5397 37.2622 24.6204 37.3677 24.748C37.4745 24.8743 37.5279 25.0228 37.5279 25.1934C37.5279 25.3236 37.5018 25.4434 37.4497 25.5527C37.399 25.6608 37.3299 25.7507 37.2427 25.8223C37.1568 25.8926 37.0565 25.9473 36.9419 25.9863C36.8286 26.0254 36.7089 26.0449 36.5825 26.0449ZM35.8423 25.4316H35.8443H35.8423ZM38.6318 24.8672H39.294V23.7852C39.2653 23.8307 39.0446 24.1914 38.6318 24.8672ZM39.2861 26V25.2559H38.0811V24.8867L39.2217 23.1562H39.7803V24.8672H40.2275V25.2559H39.79V26H39.2861ZM41.5913 26.0449C41.4272 26.0449 41.2658 26.0117 41.1069 25.9453C40.9494 25.8776 40.8107 25.7806 40.6909 25.6543L40.9507 25.2832C41.0405 25.3926 41.1414 25.4766 41.2534 25.5352C41.3654 25.5924 41.4748 25.6211 41.5815 25.6211C41.7274 25.6211 41.8511 25.5736 41.9526 25.4785C42.0542 25.3835 42.105 25.248 42.105 25.0723C42.105 24.9329 42.0705 24.8138 42.0015 24.7148C41.9337 24.6146 41.8426 24.5645 41.728 24.5645C41.5692 24.5645 41.4604 24.6068 41.4018 24.6914L40.9077 24.625V23.1562H42.4878V23.5801H41.3452L41.3218 24.3086C41.4142 24.1862 41.5828 24.125 41.8276 24.125C42.0425 24.125 42.2274 24.2168 42.3823 24.4004C42.5386 24.584 42.6167 24.8105 42.6167 25.0801C42.6167 25.2051 42.5972 25.321 42.5581 25.4277C42.5203 25.5345 42.4683 25.6257 42.4018 25.7012C42.3367 25.7754 42.2599 25.8392 42.1714 25.8926C42.0841 25.9447 41.991 25.9831 41.8921 26.0078C41.7944 26.0326 41.6942 26.0449 41.5913 26.0449ZM44.209 25.6211C44.3496 25.6211 44.4635 25.5697 44.5508 25.4668C44.638 25.3626 44.6816 25.2324 44.6816 25.0762C44.6816 24.916 44.6425 24.7845 44.5644 24.6816C44.4876 24.5788 44.3789 24.5273 44.2383 24.5273C44.082 24.5273 43.9577 24.5794 43.8652 24.6836C43.7741 24.7865 43.7285 24.9199 43.7285 25.084C43.7285 25.1647 43.7428 25.2402 43.7715 25.3105C43.8001 25.3796 43.8379 25.4362 43.8847 25.4805C43.9316 25.5247 43.983 25.5592 44.039 25.584C44.095 25.6087 44.1517 25.6211 44.209 25.6211ZM44.2226 26.0449C43.9948 26.0449 43.8014 25.9857 43.6425 25.8672C43.4837 25.7487 43.3665 25.5853 43.291 25.377C43.2155 25.1673 43.1777 24.9206 43.1777 24.6367C43.1777 24.4245 43.2024 24.2266 43.2519 24.043C43.3027 23.8581 43.375 23.696 43.4687 23.5566C43.5638 23.416 43.6849 23.3053 43.832 23.2246C43.9791 23.1439 44.1438 23.1035 44.3261 23.1035C44.6256 23.1035 44.8665 23.1882 45.0488 23.3574L44.8847 23.7266C44.7155 23.5938 44.5306 23.5273 44.33 23.5273C44.1517 23.5273 44.0045 23.612 43.8886 23.7812C43.7728 23.9505 43.7096 24.1628 43.6992 24.418C43.8385 24.2201 44.0273 24.1211 44.2656 24.1211C44.5481 24.1211 44.7728 24.207 44.9394 24.3789C45.1074 24.5495 45.1914 24.7799 45.1914 25.0703C45.1914 25.3542 45.1028 25.5879 44.9258 25.7715C44.7487 25.9538 44.5143 26.0449 44.2226 26.0449ZM45.9965 26L47.0727 23.5625H45.6684V23.1562H47.6469V23.5352L46.5278 26H45.9965ZM49.1279 24.3242C49.2568 24.2865 49.357 24.2285 49.4286 24.1504C49.5003 24.071 49.5361 23.9746 49.5361 23.8613C49.5361 23.7624 49.497 23.6842 49.4189 23.627C49.3408 23.5684 49.2431 23.5391 49.1259 23.5391C48.9996 23.5391 48.9 23.5684 48.8271 23.627C48.7542 23.6842 48.7177 23.7702 48.7177 23.8848C48.7177 23.9902 48.7535 24.0814 48.8251 24.1582C48.898 24.235 48.999 24.2904 49.1279 24.3242ZM49.1298 25.6113C49.2756 25.6113 49.3896 25.5768 49.4716 25.5078C49.5549 25.4388 49.5966 25.334 49.5966 25.1934C49.5966 25.0827 49.5523 24.9785 49.4638 24.8809C49.3766 24.7832 49.2691 24.7174 49.1415 24.6836C49.0022 24.7148 48.8883 24.7773 48.7997 24.8711C48.7112 24.9648 48.6669 25.0749 48.6669 25.2012C48.6669 25.3327 48.7079 25.4342 48.79 25.5059C48.8733 25.5762 48.9866 25.6113 49.1298 25.6113ZM49.1376 26.0449C48.9514 26.0449 48.7854 26.0137 48.6396 25.9512C48.4937 25.8887 48.3772 25.7949 48.29 25.6699C48.204 25.5449 48.1611 25.3978 48.1611 25.2285C48.1611 25.071 48.2034 24.9303 48.288 24.8066C48.374 24.6816 48.4924 24.582 48.6435 24.5078C48.3596 24.3464 48.2177 24.1283 48.2177 23.8535C48.2177 23.6217 48.3017 23.4388 48.4697 23.3047C48.6389 23.1706 48.857 23.1035 49.124 23.1035C49.4078 23.1035 49.6311 23.1725 49.7939 23.3105C49.9579 23.4473 50.04 23.6354 50.04 23.875C50.04 24.1641 49.9 24.377 49.62 24.5137C49.7581 24.5827 49.872 24.6842 49.9618 24.8184C50.053 24.9512 50.0986 25.0931 50.0986 25.2441C50.0986 25.4108 50.053 25.556 49.9618 25.6797C49.8707 25.8034 49.7529 25.8952 49.6083 25.9551C49.4651 26.015 49.3082 26.0449 49.1376 26.0449ZM51.5717 24.5781C51.724 24.5781 51.8471 24.5299 51.9408 24.4336C52.0359 24.3372 52.0834 24.1979 52.0834 24.0156C52.0834 23.8789 52.0398 23.7637 51.9525 23.6699C51.8666 23.5749 51.752 23.5273 51.6088 23.5273C51.4578 23.5273 51.3367 23.5762 51.2455 23.6738C51.1557 23.7702 51.1108 23.8971 51.1108 24.0547C51.1108 24.2096 51.1498 24.3359 51.2279 24.4336C51.3074 24.5299 51.422 24.5781 51.5717 24.5781ZM51.4877 26.0508C51.269 26.0508 51.0235 25.9837 50.7514 25.8496L50.9311 25.4473C51.1016 25.5605 51.2735 25.6172 51.4467 25.6172C51.5339 25.6172 51.6153 25.6016 51.6908 25.5703C51.7664 25.5378 51.8347 25.4889 51.8959 25.4238C51.9571 25.3587 52.0053 25.2708 52.0404 25.1602C52.0756 25.0482 52.0932 24.9186 52.0932 24.7715V24.7207C51.9747 24.9004 51.7846 24.9902 51.5229 24.9902C51.2468 24.9902 51.0255 24.9049 50.8588 24.7344C50.6934 24.5638 50.6108 24.3405 50.6108 24.0645C50.6108 23.7858 50.6999 23.556 50.8783 23.375C51.0567 23.194 51.293 23.1035 51.5873 23.1035C51.9063 23.1035 52.1524 23.222 52.3256 23.459C52.5001 23.6947 52.5873 24.0397 52.5873 24.4941C52.5873 24.7988 52.545 25.0677 52.4604 25.3008C52.3757 25.5339 52.2494 25.7174 52.0815 25.8516C51.9148 25.9844 51.7169 26.0508 51.4877 26.0508Z" fill="#EAE0E0"/>
<path d="M44.9875 39.1074C45.2493 39.1074 45.4589 39.1868 45.6165 39.3457C45.7753 39.5046 45.8547 39.7331 45.8547 40.0312C45.8547 40.0938 45.8489 40.1549 45.8372 40.2148C45.8267 40.2747 45.8144 40.3275 45.8 40.373C45.7857 40.4186 45.7629 40.4681 45.7317 40.5215C45.7017 40.5749 45.6764 40.6178 45.6555 40.6504C45.636 40.6829 45.6041 40.7246 45.5598 40.7754C45.5168 40.8262 45.4849 40.8633 45.4641 40.8867C45.4433 40.9089 45.4081 40.946 45.3586 40.998L44.7922 41.5938H45.8333V42H44.1848V41.6426L45.0071 40.7285C45.0735 40.6543 45.1191 40.6035 45.1438 40.5762C45.1685 40.5475 45.2011 40.5065 45.2415 40.4531C45.2831 40.3984 45.3111 40.3548 45.3254 40.3223C45.3398 40.2897 45.3528 40.25 45.3645 40.2031C45.3775 40.1562 45.384 40.1074 45.384 40.0566C45.384 40.0189 45.3795 39.9668 45.3704 39.9004C45.3586 39.8288 45.3391 39.7682 45.3118 39.7188C45.2857 39.668 45.2532 39.6296 45.2141 39.6035C45.1764 39.5762 45.1353 39.5566 45.0911 39.5449C45.0481 39.5332 44.9993 39.5273 44.9446 39.5273C44.9081 39.5273 44.8704 39.5306 44.8313 39.5371C44.7922 39.5423 44.7545 39.5501 44.718 39.5605C44.6816 39.5697 44.6451 39.5807 44.6086 39.5938C44.5722 39.6055 44.5383 39.6185 44.5071 39.6328C44.4758 39.6458 44.4452 39.6595 44.4153 39.6738C44.3866 39.6868 44.3612 39.6999 44.3391 39.7129C44.317 39.7246 44.2974 39.7357 44.2805 39.7461C44.2636 39.7552 44.2506 39.763 44.2415 39.7695L44.2278 39.7773L44.0618 39.3887C44.0722 39.3809 44.0865 39.3711 44.1047 39.3594C44.1243 39.3464 44.1659 39.3236 44.2297 39.291C44.2935 39.2585 44.3586 39.2298 44.425 39.2051C44.4928 39.1803 44.578 39.1582 44.6809 39.1387C44.7838 39.1178 44.886 39.1074 44.9875 39.1074ZM47.5349 42.0449C47.4268 42.0449 47.322 42.0365 47.2204 42.0195C47.1202 42.0039 47.0368 41.9844 46.9704 41.9609C46.904 41.9375 46.8448 41.9141 46.7927 41.8906C46.7419 41.8659 46.7048 41.8451 46.6814 41.8281L46.6462 41.8047L46.7966 41.4316C46.8161 41.4447 46.85 41.4635 46.8982 41.4883C46.9477 41.5117 47.0271 41.5397 47.1365 41.5723C47.2471 41.6048 47.3519 41.6211 47.4509 41.6211C47.6267 41.6211 47.7615 41.5814 47.8552 41.502C47.949 41.4212 47.9958 41.3112 47.9958 41.1719C47.9958 41.0234 47.932 40.9128 47.8044 40.8398C47.6781 40.7656 47.5023 40.7285 47.2771 40.7285H47.2146L47.0896 40.7324L47.0857 40.3125H47.2263C47.4789 40.3125 47.6566 40.2793 47.7595 40.2129C47.8637 40.1465 47.9158 40.028 47.9158 39.8574C47.9158 39.7533 47.8669 39.6725 47.7693 39.6152C47.6716 39.5566 47.559 39.5273 47.4314 39.5273C47.3702 39.5273 47.3116 39.5326 47.2556 39.543C47.1996 39.5534 47.1488 39.5684 47.1033 39.5879C47.0577 39.6061 47.0206 39.623 46.9919 39.6387C46.9633 39.653 46.9314 39.6712 46.8962 39.6934C46.8611 39.7155 46.8396 39.7292 46.8318 39.7344L46.6111 39.377C46.7634 39.2754 46.8982 39.2044 47.0154 39.1641C47.1339 39.1237 47.2947 39.1035 47.4978 39.1035C47.6176 39.1035 47.7309 39.1191 47.8376 39.1504C47.9457 39.1816 48.0427 39.2272 48.1286 39.2871C48.2159 39.3457 48.2849 39.4232 48.3357 39.5195C48.3878 39.6159 48.4138 39.7246 48.4138 39.8457C48.4138 39.946 48.3962 40.041 48.3611 40.1309C48.3272 40.2207 48.2686 40.3014 48.1853 40.373C48.1033 40.4434 48.0023 40.4876 47.8825 40.5059C48.0687 40.5397 48.2146 40.6204 48.32 40.748C48.4268 40.8743 48.4802 41.0228 48.4802 41.1934C48.4802 41.3236 48.4542 41.4434 48.4021 41.5527C48.3513 41.6608 48.2823 41.7507 48.195 41.8223C48.1091 41.8926 48.0089 41.9473 47.8943 41.9863C47.781 42.0254 47.6612 42.0449 47.5349 42.0449ZM46.7947 41.4316H46.7966H46.7947ZM48.6662 42.4629L49.926 39.1562H50.3557L49.0861 42.4629H48.6662ZM51.3522 39.1074C51.614 39.1074 51.8236 39.1868 51.9811 39.3457C52.14 39.5046 52.2194 39.7331 52.2194 40.0312C52.2194 40.0938 52.2136 40.1549 52.2018 40.2148C52.1914 40.2747 52.1791 40.3275 52.1647 40.373C52.1504 40.4186 52.1276 40.4681 52.0964 40.5215C52.0664 40.5749 52.041 40.6178 52.0202 40.6504C52.0007 40.6829 51.9688 40.7246 51.9245 40.7754C51.8815 40.8262 51.8496 40.8633 51.8288 40.8867C51.808 40.9089 51.7728 40.946 51.7233 40.998L51.1569 41.5938H52.1979V42H50.5495V41.6426L51.3718 40.7285C51.4382 40.6543 51.4837 40.6035 51.5085 40.5762C51.5332 40.5475 51.5658 40.5065 51.6061 40.4531C51.6478 40.3984 51.6758 40.3548 51.6901 40.3223C51.7044 40.2897 51.7175 40.25 51.7292 40.2031C51.7422 40.1562 51.7487 40.1074 51.7487 40.0566C51.7487 40.0189 51.7442 39.9668 51.735 39.9004C51.7233 39.8288 51.7038 39.7682 51.6765 39.7188C51.6504 39.668 51.6179 39.6296 51.5788 39.6035C51.541 39.5762 51.5 39.5566 51.4558 39.5449C51.4128 39.5332 51.364 39.5273 51.3093 39.5273C51.2728 39.5273 51.235 39.5306 51.196 39.5371C51.1569 39.5423 51.1192 39.5501 51.0827 39.5605C51.0462 39.5697 51.0098 39.5807 50.9733 39.5938C50.9369 39.6055 50.903 39.6185 50.8718 39.6328C50.8405 39.6458 50.8099 39.6595 50.78 39.6738C50.7513 39.6868 50.7259 39.6999 50.7038 39.7129C50.6817 39.7246 50.6621 39.7357 50.6452 39.7461C50.6283 39.7552 50.6153 39.763 50.6061 39.7695L50.5925 39.7773L50.4265 39.3887C50.4369 39.3809 50.4512 39.3711 50.4694 39.3594C50.489 39.3464 50.5306 39.3236 50.5944 39.291C50.6582 39.2585 50.7233 39.2298 50.7897 39.2051C50.8574 39.1803 50.9427 39.1582 51.0456 39.1387C51.1485 39.1178 51.2507 39.1074 51.3522 39.1074ZM53.8996 42.0449C53.7355 42.0449 53.5741 42.0117 53.4152 41.9453C53.2577 41.8776 53.119 41.7806 52.9992 41.6543L53.259 41.2832C53.3488 41.3926 53.4497 41.4766 53.5617 41.5352C53.6737 41.5924 53.783 41.6211 53.8898 41.6211C54.0356 41.6211 54.1593 41.5736 54.2609 41.4785C54.3625 41.3835 54.4133 41.248 54.4133 41.0723C54.4133 40.9329 54.3787 40.8138 54.3097 40.7148C54.242 40.6146 54.1509 40.5645 54.0363 40.5645C53.8774 40.5645 53.7687 40.6068 53.7101 40.6914L53.216 40.625V39.1562H54.7961V39.5801H53.6535L53.63 40.3086C53.7225 40.1862 53.8911 40.125 54.1359 40.125C54.3508 40.125 54.5356 40.2168 54.6906 40.4004C54.8468 40.584 54.925 40.8105 54.925 41.0801C54.925 41.2051 54.9054 41.321 54.8664 41.4277C54.8286 41.5345 54.7765 41.6257 54.7101 41.7012C54.645 41.7754 54.5682 41.8392 54.4797 41.8926C54.3924 41.9447 54.2993 41.9831 54.2004 42.0078C54.1027 42.0326 54.0024 42.0449 53.8996 42.0449ZM55.0309 42.4629L56.2907 39.1562H56.7204L55.4508 42.4629H55.0309ZM57.7169 39.1074C57.9786 39.1074 58.1883 39.1868 58.3458 39.3457C58.5047 39.5046 58.5841 39.7331 58.5841 40.0312C58.5841 40.0938 58.5783 40.1549 58.5665 40.2148C58.5561 40.2747 58.5437 40.3275 58.5294 40.373C58.5151 40.4186 58.4923 40.4681 58.4611 40.5215C58.4311 40.5749 58.4057 40.6178 58.3849 40.6504C58.3654 40.6829 58.3335 40.7246 58.2892 40.7754C58.2462 40.8262 58.2143 40.8633 58.1935 40.8867C58.1727 40.9089 58.1375 40.946 58.088 40.998L57.5216 41.5938H58.5626V42H56.9142V41.6426L57.7365 40.7285C57.8029 40.6543 57.8484 40.6035 57.8732 40.5762C57.8979 40.5475 57.9305 40.5065 57.9708 40.4531C58.0125 40.3984 58.0405 40.3548 58.0548 40.3223C58.0691 40.2897 58.0822 40.25 58.0939 40.2031C58.1069 40.1562 58.1134 40.1074 58.1134 40.0566C58.1134 40.0189 58.1089 39.9668 58.0997 39.9004C58.088 39.8288 58.0685 39.7682 58.0411 39.7188C58.0151 39.668 57.9825 39.6296 57.9435 39.6035C57.9057 39.5762 57.8647 39.5566 57.8204 39.5449C57.7775 39.5332 57.7286 39.5273 57.674 39.5273C57.6375 39.5273 57.5997 39.5306 57.5607 39.5371C57.5216 39.5423 57.4839 39.5501 57.4474 39.5605C57.4109 39.5697 57.3745 39.5807 57.338 39.5938C57.3016 39.6055 57.2677 39.6185 57.2365 39.6328C57.2052 39.6458 57.1746 39.6595 57.1447 39.6738C57.116 39.6868 57.0906 39.6999 57.0685 39.7129C57.0464 39.7246 57.0268 39.7357 57.0099 39.7461C56.993 39.7552 56.9799 39.763 56.9708 39.7695L56.9572 39.7773L56.7911 39.3887C56.8016 39.3809 56.8159 39.3711 56.8341 39.3594C56.8536 39.3464 56.8953 39.3236 56.9591 39.291C57.0229 39.2585 57.088 39.2298 57.1544 39.2051C57.2221 39.1803 57.3074 39.1582 57.4103 39.1387C57.5131 39.1178 57.6154 39.1074 57.7169 39.1074ZM60.2916 42.0449C59.9752 42.0449 59.7291 41.9102 59.5533 41.6406C59.3789 41.3698 59.2916 41.0072 59.2916 40.5527C59.2916 40.0931 59.3775 39.737 59.5494 39.4844C59.7226 39.2305 59.9713 39.1035 60.2955 39.1035C60.6145 39.1035 60.86 39.2331 61.0318 39.4922C61.205 39.7513 61.2916 40.1048 61.2916 40.5527C61.2916 40.8509 61.2545 41.1113 61.1803 41.334C61.1061 41.5553 60.9928 41.7292 60.8404 41.8555C60.6894 41.9818 60.5065 42.0449 60.2916 42.0449ZM60.2994 41.6211C60.6236 41.6211 60.7858 41.2656 60.7858 40.5547C60.7858 40.4167 60.7773 40.2891 60.7604 40.1719C60.7434 40.0547 60.7167 39.9466 60.6803 39.8477C60.6451 39.7474 60.595 39.6693 60.5299 39.6133C60.4661 39.556 60.3899 39.5273 60.3014 39.5273C60.2089 39.5273 60.1289 39.556 60.0611 39.6133C59.9934 39.6693 59.9414 39.7474 59.9049 39.8477C59.8684 39.9466 59.8417 40.0547 59.8248 40.1719C59.8079 40.2891 59.7994 40.4173 59.7994 40.5566C59.7994 40.7181 59.8079 40.8607 59.8248 40.9844C59.8417 41.1081 59.8684 41.2194 59.9049 41.3184C59.9427 41.416 59.9947 41.4909 60.0611 41.543C60.1275 41.5951 60.207 41.6211 60.2994 41.6211ZM62.7257 39.1074C62.9874 39.1074 63.197 39.1868 63.3546 39.3457C63.5134 39.5046 63.5929 39.7331 63.5929 40.0312C63.5929 40.0938 63.587 40.1549 63.5753 40.2148C63.5649 40.2747 63.5525 40.3275 63.5382 40.373C63.5239 40.4186 63.5011 40.4681 63.4698 40.5215C63.4399 40.5749 63.4145 40.6178 63.3936 40.6504C63.3741 40.6829 63.3422 40.7246 63.2979 40.7754C63.255 40.8262 63.2231 40.8633 63.2022 40.8867C63.1814 40.9089 63.1462 40.946 63.0968 40.998L62.5304 41.5938H63.5714V42H61.9229V41.6426L62.7452 40.7285C62.8116 40.6543 62.8572 40.6035 62.8819 40.5762C62.9067 40.5475 62.9392 40.5065 62.9796 40.4531C63.0212 40.3984 63.0492 40.3548 63.0636 40.3223C63.0779 40.2897 63.0909 40.25 63.1026 40.2031C63.1156 40.1562 63.1222 40.1074 63.1222 40.0566C63.1222 40.0189 63.1176 39.9668 63.1085 39.9004C63.0968 39.8288 63.0772 39.7682 63.0499 39.7188C63.0239 39.668 62.9913 39.6296 62.9522 39.6035C62.9145 39.5762 62.8735 39.5566 62.8292 39.5449C62.7862 39.5332 62.7374 39.5273 62.6827 39.5273C62.6462 39.5273 62.6085 39.5306 62.5694 39.5371C62.5304 39.5423 62.4926 39.5501 62.4561 39.5605C62.4197 39.5697 62.3832 39.5807 62.3468 39.5938C62.3103 39.6055 62.2765 39.6185 62.2452 39.6328C62.214 39.6458 62.1834 39.6595 62.1534 39.6738C62.1248 39.6868 62.0994 39.6999 62.0772 39.7129C62.0551 39.7246 62.0356 39.7357 62.0186 39.7461C62.0017 39.7552 61.9887 39.763 61.9796 39.7695L61.9659 39.7773L61.7999 39.3887C61.8103 39.3809 61.8246 39.3711 61.8429 39.3594C61.8624 39.3464 61.9041 39.3236 61.9679 39.291C62.0317 39.2585 62.0968 39.2298 62.1632 39.2051C62.2309 39.1803 62.3162 39.1582 62.419 39.1387C62.5219 39.1178 62.6241 39.1074 62.7257 39.1074ZM65.273 42.0449C65.1649 42.0449 65.0601 42.0365 64.9586 42.0195C64.8583 42.0039 64.775 41.9844 64.7086 41.9609C64.6422 41.9375 64.5829 41.9141 64.5308 41.8906C64.48 41.8659 64.4429 41.8451 64.4195 41.8281L64.3843 41.8047L64.5347 41.4316C64.5543 41.4447 64.5881 41.4635 64.6363 41.4883C64.6858 41.5117 64.7652 41.5397 64.8746 41.5723C64.9853 41.6048 65.0901 41.6211 65.189 41.6211C65.3648 41.6211 65.4996 41.5814 65.5933 41.502C65.6871 41.4212 65.734 41.3112 65.734 41.1719C65.734 41.0234 65.6702 40.9128 65.5425 40.8398C65.4162 40.7656 65.2405 40.7285 65.0152 40.7285H64.9527L64.8277 40.7324L64.8238 40.3125H64.9644C65.217 40.3125 65.3948 40.2793 65.4976 40.2129C65.6018 40.1465 65.6539 40.028 65.6539 39.8574C65.6539 39.7533 65.605 39.6725 65.5074 39.6152C65.4097 39.5566 65.2971 39.5273 65.1695 39.5273C65.1083 39.5273 65.0497 39.5326 64.9937 39.543C64.9377 39.5534 64.887 39.5684 64.8414 39.5879C64.7958 39.6061 64.7587 39.623 64.73 39.6387C64.7014 39.653 64.6695 39.6712 64.6343 39.6934C64.5992 39.7155 64.5777 39.7292 64.5699 39.7344L64.3492 39.377C64.5015 39.2754 64.6363 39.2044 64.7535 39.1641C64.872 39.1237 65.0328 39.1035 65.2359 39.1035C65.3557 39.1035 65.469 39.1191 65.5758 39.1504C65.6838 39.1816 65.7808 39.2272 65.8668 39.2871C65.954 39.3457 66.023 39.4232 66.0738 39.5195C66.1259 39.6159 66.1519 39.7246 66.1519 39.8457C66.1519 39.946 66.1343 40.041 66.0992 40.1309C66.0653 40.2207 66.0067 40.3014 65.9234 40.373C65.8414 40.4434 65.7405 40.4876 65.6207 40.5059C65.8069 40.5397 65.9527 40.6204 66.0582 40.748C66.1649 40.8743 66.2183 41.0228 66.2183 41.1934C66.2183 41.3236 66.1923 41.4434 66.1402 41.5527C66.0894 41.6608 66.0204 41.7507 65.9332 41.8223C65.8472 41.8926 65.747 41.9473 65.6324 41.9863C65.5191 42.0254 65.3993 42.0449 65.273 42.0449ZM64.5328 41.4316H64.5347H64.5328Z" fill="#EAE0E0"/>
<path d="M62.2473 22.5845C62.2473 21.4799 63.1427 20.5845 64.2473 20.5845H67.3111C68.4157 20.5845 69.3111 21.4799 69.3111 22.5845V25.6482C69.3111 26.7528 68.4157 27.6482 67.3111 27.6482H64.2473C63.1427 27.6482 62.2473 26.7528 62.2473 25.6482V22.5845Z" fill="white"/>
<defs>
<filter id="filter0_d_724_169" x="0" y="16.5347" width="75.7913" height="39.4155" filterUnits="userSpaceOnUse" color-interpolation-filters="sRGB">
<feFlood flood-opacity="0" result="BackgroundImageFix"/>
<feColorMatrix in="SourceAlpha" type="matrix" values="0 0 0 0 0 0 0 0 0 0 0 0 0 0 0 0 0 0 127 0" result="hardAlpha"/>
<feOffset dy="4"/>
<feGaussianBlur stdDeviation="2"/>
<feComposite in2="hardAlpha" operator="out"/>
<feColorMatrix type="matrix" values="0 0 0 0 0.631326 0 0 0 0 0.209444 0 0 0 0 0.966667 0 0 0 1 0"/>
<feBlend mode="normal" in2="BackgroundImageFix" result="effect1_dropShadow_724_169"/>
<feBlend mode="normal" in="SourceGraphic" in2="effect1_dropShadow_724_169" result="shape"/>
</filter>
</defs>
</svg>
